<?xml version="1.0" standalone="no"?>
<!DOCTYPE svg PUBLIC "-//W3C//DTD SVG 20010904//EN"
 "http://www.w3.org/TR/2001/REC-SVG-20010904/DTD/svg10.dtd">
<svg version="1.0" xmlns="http://www.w3.org/2000/svg"
 width="445.000000pt" height="445.000000pt" viewBox="0 0 445.000000 445.000000"
 preserveAspectRatio="xMidYMid meet">
<metadata>
Created by potrace 1.11, written by Peter Selinger 2001-2013
</metadata>
<g transform="translate(0.000000,445.000000) scale(0.100000,-0.100000)"
fill="#000000" stroke="none">
<path d="M2048 3934 c-3 -2 -24 -6 -48 -9 -23 -3 -46 -8 -50 -10 -4 -3 -23 -7
-41 -10 -19 -2 -45 -7 -59 -10 -14 -4 -38 -8 -55 -11 -16 -3 -39 -9 -50 -14
-11 -5 -40 -16 -65 -24 -77 -24 -185 -69 -188 -78 -2 -4 -10 -8 -17 -8 -8 0
-36 -12 -62 -28 -26 -15 -60 -34 -75 -41 -16 -8 -28 -18 -28 -23 0 -4 -5 -8
-11 -8 -6 0 -29 -14 -50 -31 -21 -17 -39 -28 -39 -25 0 3 -11 -5 -25 -18 -14
-13 -25 -27 -25 -31 0 -11 -53 -55 -60 -50 -12 7 -200 -185 -200 -204 0 -6 -4
-11 -9 -11 -4 0 -21 -19 -37 -42 -16 -24 -31 -45 -34 -48 -11 -11 -52 -75 -86
-137 -12 -21 -31 -56 -43 -77 -29 -51 -101 -229 -101 -250 0 -9 -5 -16 -12
-16 -6 0 -9 -2 -6 -6 3 -3 0 -25 -7 -49 -8 -24 -11 -46 -8 -49 4 -3 2 -6 -3
-6 -5 0 -10 -9 -11 -21 -1 -11 -7 -46 -14 -77 -14 -68 -22 -138 -31 -277 -3
-39 14 -238 21 -258 6 -14 8 -27 5 -30 -3 -3 2 -31 10 -64 9 -32 17 -68 19
-79 1 -10 6 -25 10 -31 5 -7 6 -17 2 -22 -3 -5 -1 -12 5 -16 5 -3 10 -14 10
-23 0 -23 71 -206 82 -210 4 -2 8 -10 8 -18 0 -17 41 -98 52 -102 4 -2 8 -8 8
-13 0 -9 96 -158 109 -169 3 -3 19 -22 35 -43 15 -21 44 -55 64 -77 21 -21 49
-51 63 -67 14 -15 47 -46 73 -68 26 -22 53 -44 59 -50 7 -5 30 -23 52 -39 22
-17 43 -35 47 -40 5 -7 8 -7 8 -1 0 6 3 6 8 0 7 -10 49 -39 87 -61 11 -6 47
-26 80 -44 33 -18 66 -37 73 -43 6 -5 12 -7 12 -4 0 4 21 -4 48 -17 49 -25
165 -66 242 -87 47 -13 52 -14 110 -23 19 -3 49 -7 65 -10 129 -23 394 -24
495 -1 14 3 39 7 55 9 64 9 103 18 175 38 103 28 145 44 288 110 78 36 273
160 280 177 5 14 27 33 42 37 31 7 111 73 184 153 17 18 45 48 61 66 54 58 71
81 95 123 13 23 27 42 30 42 7 0 27 39 28 54 0 5 5 12 10 15 13 9 95 161 86
161 -4 0 0 8 8 18 12 14 69 155 74 185 1 4 3 9 4 12 1 3 3 8 5 13 1 4 5 14 8
22 7 15 36 153 43 200 24 169 23 404 -2 538 -4 20 -8 44 -9 52 -1 8 -8 35 -15
60 -7 25 -14 52 -15 60 -2 8 -4 15 -5 15 -1 0 -3 7 -5 15 -14 67 -129 331
-147 338 -4 2 -8 9 -8 16 0 7 -11 30 -25 50 -13 20 -22 36 -20 36 3 0 -2 8
-10 18 -9 9 -37 46 -63 82 -26 36 -58 78 -72 95 -53 63 -197 202 -232 225 -21
14 -38 28 -38 33 0 4 -6 7 -14 7 -8 0 -16 4 -18 8 -12 30 -376 232 -418 232
-9 0 -20 3 -24 7 -3 4 -12 8 -19 9 -7 1 -55 14 -107 28 -52 15 -115 29 -140
32 -25 3 -56 8 -70 11 -29 7 -406 14 -412 7z"/>
</g>
</svg>
